<svg xmlns="http://www.w3.org/2000/svg" viewBox="0 0 64 64" role="img" aria-labelledby="title desc">
  <title id="title">Quant Hunter icon</title>
  <desc id="desc">A red rising arrow, candlestick signal line, and scanning reticle for a stock quant app.</desc>
  <defs>
    <linearGradient id="redEdge" x1="10" y1="54" x2="52" y2="8" gradientUnits="userSpaceOnUse">
      <stop offset="0" stop-color="#a80f17"/>
      <stop offset=".55" stop-color="#e01b24"/>
      <stop offset="1" stop-color="#ff5a46"/>
    </linearGradient>
    <linearGradient id="hotFace" x1="18" y1="47" x2="48" y2="13" gradientUnits="userSpaceOnUse">
      <stop offset="0" stop-color="#d71920"/>
      <stop offset=".48" stop-color="#f3352f"/>
      <stop offset="1" stop-color="#ff8a4d"/>
    </linearGradient>
    <filter id="softShadow" x="-20%" y="-20%" width="140%" height="150%">
      <feDropShadow dx="0" dy="4" stdDeviation="3.2" flood-color="#8f1017" flood-opacity=".25"/>
    </filter>
  </defs>

  <path
    fill="url(#redEdge)"
    filter="url(#softShadow)"
    d="M8.8 36.5 24.6 12.8c1.9-2.8 6-2.5 7.4.5l3.5 7.4 10.4-4.8c3.6-1.7 7.2 2 5.5 5.6l-4.6 9.9 8 3.8c3 1.4 3.3 5.6.5 7.4L31.6 58.3c-2.7 1.8-6.2.3-6.9-2.8l-2.5-11.2-11.3-2.5c-3.2-.7-4.5-4.5-2.1-5.3Z"/>
  <path
    fill="url(#hotFace)"
    d="M14.3 36.8 27.4 17l4.7 10.1 13.7-6.3-6.2 13.4L50 39.1 30.2 52.2l-2.8-12.8-13.1-2.6Z"/>
  <path
    fill="#fff"
    fill-opacity=".95"
    d="m22.7 36.1 6.6 1.4 12.1-13-4.4 12.8 6.2 3-14.1 3.7-1.5-6.6-6.6-1.4Z"/>
  <g fill="none" stroke-linecap="round" stroke-linejoin="round">
    <path stroke="#ffffff" stroke-width="3.2" d="M20.9 35.7h5.7l4.7-7.9 4.4 5.6h7.8"/>
    <path stroke="#741014" stroke-opacity=".45" stroke-width="1.7" d="M20.9 35.7h5.7l4.7-7.9 4.4 5.6h7.8"/>
    <path stroke="#fff8f2" stroke-width="2.2" d="M40.9 15.8v6.8M47.3 19.6h-6.8"/>
    <path stroke="#fff8f2" stroke-width="2.2" d="M18.8 43.1v5.2M16.2 45.7h5.2"/>
    <path stroke="#ffe0d7" stroke-width="2.1" d="M29.5 15.7c5.8 1 11.1 5 13.6 10.9"/>
    <path stroke="#ffe0d7" stroke-width="2.1" d="M48.4 34.6c-.8 5.2-4.1 10.1-8.9 12.9"/>
  </g>
  <circle cx="31.3" cy="27.8" r="2.4" fill="#fff8f2"/>
  <circle cx="31.3" cy="27.8" r="5.9" fill="none" stroke="#fff8f2" stroke-width="1.7" stroke-dasharray="3.2 3.6"/>
</svg>
